<?xml version="1.0" encoding="UTF-8"?>
<svg version="1.1" xmlns="http://www.w3.org/2000/svg" width="200" height="200">
<path d="M0 0 C5.79487382 5.41873597 10.48064771 14.09579771 10.84765625 22.140625 C10.81510417 24.09375 10.78255208 26.046875 10.75 28 C12.296875 28.2784375 12.296875 28.2784375 13.875 28.5625 C18.59870275 29.9039166 21.09909138 33.00204987 23.75 37 C24.245 38.36125 24.245 38.36125 24.75 39.75 C26.21415748 43.04435432 28.54588472 43.56141763 31.75 45 C34.65727382 47.40601971 35.58835409 49.46038898 35.98828125 53.26953125 C36.15699943 59.05034894 35.79422113 62.51856577 31.75 67 C29 68.875 29 68.875 26.75 70 C28.24685973 74.49057919 31.85295824 76.6652467 35.75 79 C39.31045177 80.18681726 42.18808337 80.09689832 45.9375 80.0625 C47.20980469 80.05347656 48.48210937 80.04445313 49.79296875 80.03515625 C50.76878906 80.02355469 51.74460938 80.01195313 52.75 80 C52.75 77.03 52.75 74.06 52.75 71 C63.66549563 66.03841108 79.87696243 66.2756944 91.09765625 70.24609375 C92.75 71 92.75 71 93.75 72 C93.84769665 73.42488925 93.87631692 74.85458723 93.87698364 76.28282166 C93.87980347 77.20686295 93.88262329 78.13090424 93.88552856 79.08294678 C93.88249222 80.61571259 93.88249222 80.61571259 93.87939453 82.17944336 C93.88202301 83.78418266 93.88202301 83.78418266 93.88470459 85.42134094 C93.88912592 88.97752478 93.88618392 92.53365936 93.8828125 96.08984375 C93.88348551 98.54985056 93.88445551 101.00985731 93.88571167 103.46986389 C93.88718907 108.63413118 93.88503293 113.7983812 93.88037109 118.96264648 C93.87467678 125.59540908 93.87795068 132.22813119 93.88394356 138.8608923 C93.88755059 143.94365242 93.88640987 149.02640288 93.88381577 154.10916328 C93.88314674 156.55529345 93.88397408 159.00142448 93.88629532 161.44755363 C93.88882383 164.86211354 93.88497825 168.27660716 93.87939453 171.69116211 C93.88141876 172.71098175 93.88344299 173.73080139 93.88552856 174.78152466 C93.88270874 175.70838577 93.87988892 176.63524689 93.87698364 177.5901947 C93.8764181 178.80224783 93.8764181 178.80224783 93.87584114 180.03878689 C93.75 182 93.75 182 92.75 184 C72.81855057 184.02332743 52.88710389 184.04097841 32.95564365 184.05181217 C23.7017884 184.05697546 14.44794162 184.06401878 5.1940918 184.07543945 C-2.86856198 184.08538529 -10.93120963 184.09185319 -18.99386936 184.09408849 C-23.26568521 184.09539577 -27.53748351 184.0984827 -31.80929375 184.10573006 C-35.82535956 184.11248869 -39.84140051 184.11461728 -43.85747147 184.11310768 C-45.33576785 184.11338408 -46.81406501 184.11539013 -48.29235649 184.11920547 C-50.30198957 184.12414021 -52.31163581 184.12239814 -54.3212738 184.12025452 C-55.44862662 184.12117631 -56.57597944 184.1220981 -57.73749447 184.12304783 C-60.25 184 -60.25 184 -61.25 183 C-61.86237234 169.69870316 -61.69336732 156.99414696 -55.25 145 C-54.92 144.67 -54.59 144.34 -54.25 144 C-54.17728259 141.64686445 -54.16629132 139.29166332 -54.1875 136.9375 C-54.19652344 135.64714844 -54.20554688 134.35679687 -54.21484375 133.02734375 C-54.22644531 132.02832031 -54.23804688 131.02929688 -54.25 130 C-55.91611905 129.957279 -57.58382885 129.95936168 -59.25 130 C-61.10599992 131.85599992 -60.73492169 135.06281157 -61 137.5625 C-61.81374276 143.47569739 -62.8123251 148.73432801 -67.25 153 C-69.91796875 154.203125 -69.91796875 154.203125 -72.25 155 C-71.92515625 156.88332031 -71.92515625 156.88332031 -71.59375 158.8046875 C-71.31207769 160.49472134 -71.03085167 162.1848296 -70.75 163.875 C-70.60691406 164.69742188 -70.46382812 165.51984375 -70.31640625 166.3671875 C-69.34436474 172.29201194 -69.0772649 178.00065415 -69.25 184 C-73.3617256 184.02465746 -77.47342278 184.04283959 -81.58520508 184.05493164 C-82.98495228 184.0599708 -84.3846942 184.06680216 -85.78442383 184.07543945 C-87.79245777 184.0875232 -89.80052957 184.09269807 -91.80859375 184.09765625 C-93.62315063 184.10551147 -93.62315063 184.10551147 -95.47436523 184.11352539 C-98.25 184 -98.25 184 -99.25 183 C-99.38879713 179.96503316 -99.46329532 176.95461929 -99.48828125 173.91796875 C-99.496353 172.99341385 -99.50442474 172.06885895 -99.51274109 171.11628723 C-99.52661097 169.14826342 -99.53732005 167.18021525 -99.54516602 165.2121582 C-99.56221084 162.23795678 -99.60604841 159.26491647 -99.65039062 156.29101562 C-99.73672446 146.18009119 -99.59814172 137.3293622 -95.25 128 C-94.53976685 126.39402954 -94.53976685 126.39402954 -93.81518555 124.75561523 C-92.25704921 121.34133031 -90.61271581 117.98321427 -88.9375 114.625 C-88.12249023 112.92150391 -88.12249023 112.92150391 -87.29101562 111.18359375 C-84.01008559 104.57525062 -81.01900952 100.5390684 -75.25 96 C-75.13187991 92.69033564 -75.13187991 92.69033564 -76.25 90 C-77.52875 89.9175 -78.8075 89.835 -80.125 89.75 C-82.3046875 89.609375 -82.3046875 89.609375 -84.25 89 C-86.19738107 86.24969874 -86.48695147 84.22853676 -86.0625 80.9375 C-85.96324219 80.14988281 -85.86398438 79.36226563 -85.76171875 78.55078125 C-85.20787268 75.79000658 -84.30574022 73.28045883 -83.375 70.625 C-81.69320128 64.86343118 -83.1659069 61.77538698 -85.8984375 56.6171875 C-90.23550623 48.21881741 -90.46051709 37.92497543 -88.1875 28.875 C-86.37601318 23.50063626 -83.37031919 18.90169001 -79.25 15 C-77.58603914 14.32660822 -75.91972991 13.65895695 -74.25 13 C-73.52954236 11.0187415 -72.86998741 9.01495907 -72.25 7 C-66.76707827 -1.22438259 -58.36916536 -5.10825146 -48.98828125 -7.45703125 C-32.7843704 -10.67007491 -13.63303248 -10.65242652 0 0 Z M-66.3125 8.0625 C-68.00637772 10.20320398 -69.39327417 12.25072981 -70.75 14.625 C-72.24824527 16.99722167 -73.5130178 18.09773919 -75.6875 19.8125 C-81.01181873 24.22504322 -83.20858313 29.187398 -84 36 C-84.09901934 37.33226026 -84.18821733 38.66549443 -84.25 40 C-83.693125 39.67902344 -83.13625 39.35804687 -82.5625 39.02734375 C-79.29732167 37.57676622 -76.22059899 37.60836672 -72.6875 37.44140625 C-69.71846096 36.90374373 -68.32289557 36.19736505 -66.25 34 C-65.87818587 31.49269104 -65.87818587 31.49269104 -66.1875 28.75 C-66.37335334 23.55299004 -65.91833469 20.47899037 -63.25 16 C-61.02395991 14.44851751 -59.93814853 14 -57.25 14 C-57.62253906 14.64066406 -57.99507812 15.28132813 -58.37890625 15.94140625 C-60.66325699 20.11797122 -62.23468221 23.05029686 -62.3125 27.875 C-61.11244398 31.40457652 -60.32635401 32.8951262 -57.25 35 C-52.58167995 36.29123746 -48.6129055 35.86948622 -43.8125 35.375 C-37.97979598 34.86430241 -34.36975384 35.10202613 -29.25 38 C-26.69841222 41.47015938 -26.89531806 45.37724368 -27.421875 49.52734375 C-28.80578869 53.65950113 -31.67836783 56.51238946 -34.6328125 59.640625 C-36.50316096 61.89057928 -36.50316096 61.89057928 -36.2421875 64.671875 C-35.45259405 67.08287491 -35.45259405 67.08287491 -33.5078125 68.25 C-30.21628493 69.3433794 -26.90658195 69.87012288 -23.4921875 70.4375 C-21.25 71 -21.25 71 -19.25 73 C-19.125 76.625 -19.125 76.625 -19.25 80 C-20.57 80.33 -21.89 80.66 -23.25 81 C-23.25 79.02 -23.25 77.04 -23.25 75 C-24.30960937 74.74605469 -25.36921875 74.49210937 -26.4609375 74.23046875 C-27.84911165 73.88342521 -29.23712431 73.53573523 -30.625 73.1875 C-31.32367188 73.02185547 -32.02234375 72.85621094 -32.7421875 72.68554688 C-38.0234375 71.33984375 -38.0234375 71.33984375 -40.25 68 C-41.04639207 63.46056522 -41.15498715 61.30809946 -38.49609375 57.46484375 C-37.06964467 55.77300879 -35.60426257 54.11305144 -34.09765625 52.4921875 C-31.93784223 49.57894999 -31.46261718 47.59471364 -31.25 44 C-32.96215478 40.83251366 -33.78735609 40.15421464 -37.25 39 C-41.33190814 38.8333915 -45.21094633 39.10859131 -49.25 39.625 C-54.56887397 40.20877885 -58.43338972 39.40830514 -63.25 37 C-63.62382813 37.47695313 -63.99765625 37.95390625 -64.3828125 38.4453125 C-66.90785692 40.54775535 -68.88170453 40.54339124 -72.125 40.875 C-77.36592198 41.58446385 -77.36592198 41.58446385 -81.5 44.625 C-82.0775 45.40875 -82.655 46.1925 -83.25 47 C-81.40427037 53.7701755 -81.40427037 53.7701755 -78.5 60.125 C-75.82947461 66.26720839 -78.64229273 72.69889832 -80.7265625 78.703125 C-81.49791461 81.28910192 -81.49791461 81.28910192 -80.25 85 C-74.805 84.505 -74.805 84.505 -69.25 84 C-69.559375 85.32 -69.86875 86.64 -70.1875 88 C-70.53885574 91.06593977 -70.55106836 92.50417525 -68.93359375 95.16796875 C-67.11249888 97.20145913 -65.21348441 99.10435957 -63.25 101 C-59.38780205 105.39861433 -57.10762657 108.02353838 -57.125 114 C-57.12113281 115.3303125 -57.12113281 115.3303125 -57.1171875 116.6875 C-57.25 119 -57.25 119 -58.25 121 C-59.24 121 -60.23 121 -61.25 121 C-61.20359375 120.34773438 -61.1571875 119.69546875 -61.109375 119.0234375 C-60.8643409 113.09011168 -61.16116293 109.64138262 -65.25 105 C-68.47404402 101.71705204 -68.47404402 101.71705204 -72.8125 100.9375 C-77.90204132 103.15601801 -80.10521987 108.35673351 -82.4140625 113.1484375 C-83.26097656 114.90414062 -83.26097656 114.90414062 -84.125 116.6953125 C-84.55619141 117.60265137 -84.55619141 117.60265137 -84.99609375 118.52832031 C-85.87123632 120.3670921 -86.75902125 122.19934737 -87.6484375 124.03125 C-91.88654012 132.87683117 -94.57291657 140.16765495 -94.4453125 149.99609375 C-94.44106766 151.24641136 -94.44106766 151.24641136 -94.43673706 152.52198792 C-94.42562289 155.1606436 -94.40053515 157.79894848 -94.375 160.4375 C-94.36495885 162.23632319 -94.35583499 164.03515175 -94.34765625 165.83398438 C-94.32742152 170.22289717 -94.2882571 174.6110601 -94.25 179 C-87.65 179 -81.05 179 -74.25 179 C-74.7745759 171.48107874 -75.62684485 164.35830333 -77.25 157 C-80.55 156.34 -83.85 155.68 -87.25 155 C-86.755 153.02 -86.755 153.02 -86.25 151 C-85.66992188 151.10699219 -85.08984375 151.21398437 -84.4921875 151.32421875 C-78.16821904 152.29472876 -74.7917378 151.52981272 -69.5 147.75 C-65.91340157 142.7287622 -65.62539211 135.60172713 -64.71484375 129.671875 C-64.25 127 -64.25 127 -63.25 124 C-61.83318366 124.31182069 -60.41655349 124.62448737 -59 124.9375 C-58.21109375 125.11152344 -57.4221875 125.28554687 -56.609375 125.46484375 C-54.48271327 125.9472157 -52.36557202 126.47110699 -50.25 127 C-49.59 132.28 -48.93 137.56 -48.25 143 C-46.6 143 -44.95 143 -43.25 143 C-42.02215191 141.99440206 -42.02215191 141.99440206 -42.13647461 139.95874023 C-42.14171143 139.08419189 -42.14694824 138.20964355 -42.15234375 137.30859375 C-42.15556641 136.36435547 -42.15878906 135.42011719 -42.16210938 134.44726562 C-42.17048828 133.45404297 -42.17886719 132.46082031 -42.1875 131.4375 C-42.19201172 130.44041016 -42.19652344 129.44332031 -42.20117188 128.41601562 C-42.21299993 125.94395151 -42.22948151 123.47200482 -42.25 121 C-48.02267612 118.3463157 -48.02267612 118.3463157 -54.25 118 C-53.755 116.02 -53.755 116.02 -53.25 114 C-47.29492601 114.3916035 -42.62180176 115.37124595 -37.25 118 C-36.755 116.515 -36.755 116.515 -36.25 115 C-39.45547871 110.77459625 -42.95339277 110.06979674 -47.91015625 109.00390625 C-51.112582 107.62991056 -51.83534043 106.14761754 -53.25 103 C-53.85531623 99.94936657 -54.18830389 96.93017259 -54.52734375 93.83984375 C-55.39187906 90.44245365 -56.49233892 89.12244116 -59.25 87 C-62.417832 86.66551741 -62.417832 86.66551741 -65.25 87 C-65.25 86.01 -65.25 85.02 -65.25 84 C-57.31589674 82.44429348 -57.31589674 82.44429348 -53.25 85 C-51.16287892 89.33304484 -50.58403509 93.66175435 -49.91015625 98.37890625 C-49.16175502 101.35036913 -48.40784893 102.8279547 -46.25 105 C-43.61301898 106.26219628 -43.61301898 106.26219628 -40.6875 107.125 C-35.43786693 108.81213307 -35.43786693 108.81213307 -33.25 111 C-31.94740495 115.77618187 -32.69059494 118.41351452 -34.25 123 C-34.52410951 125.76178266 -34.43632925 128.20506132 -34.25 131 C-32.41116119 133.28728734 -32.41116119 133.28728734 -29.625 133.125 C-28.84125 133.08375 -28.0575 133.0425 -27.25 133 C-27.25 134.65 -27.25 136.3 -27.25 138 C-30.55 137.34 -33.85 136.68 -37.25 136 C-37.518125 137.44375 -37.78625 138.8875 -38.0625 140.375 C-38.51953125 142.8359375 -38.51953125 142.8359375 -39.25 145 C-42.63637495 147.2575833 -44.39599691 147.29774987 -48.3125 147.4609375 C-51.12018469 148.24210784 -51.7997536 149.50908687 -53.25 152 C-54.26375763 154.77837102 -54.26375763 154.77837102 -54.9375 157.875 C-55.18886719 158.88304687 -55.44023438 159.89109375 -55.69921875 160.9296875 C-56.50730424 166.90149659 -56.25 172.97376519 -56.25 179 C-41.4 179 -26.55 179 -11.25 179 C-10.26 172.07 -9.27 165.14 -8.25 158 C-7.92 157.01 -7.59 156.02 -7.25 155 C-5.1875 154.3125 -5.1875 154.3125 -3.25 154 C-3.4665625 155.05058594 -3.683125 156.10117188 -3.90625 157.18359375 C-5.38146123 164.54650184 -6.65433825 171.45235268 -6.25 179 C-1.4013273 179.7273009 1.36319717 179.80200645 5.66796875 177.3125 C8.79861747 174.97970096 11.78368803 172.53810421 14.75 170 C15.60851562 169.30390625 16.46703125 168.6078125 17.3515625 167.890625 C37.24710982 151.08994059 50.56302617 125.60733393 52.96386719 99.69140625 C53.3386057 94.79799547 53.5759182 89.90430456 53.75 85 C52.67621094 85.03480469 51.60242188 85.06960937 50.49609375 85.10546875 C49.05991161 85.13362918 47.62371238 85.16092691 46.1875 85.1875 C45.48302734 85.21263672 44.77855469 85.23777344 44.05273438 85.26367188 C36.07015562 85.37403011 30.41651396 82.34320657 24.609375 77.03125 C20.43526549 72.47129844 17.80526359 66.79210648 15.75 61 C11.79 61.99 11.79 61.99 7.75 63 C7.75 61.68 7.75 60.36 7.75 59 C8.53375 58.731875 9.3175 58.46375 10.125 58.1875 C13.03114923 57.15185568 13.03114923 57.15185568 14.75 54 C14.59989518 50.99790359 14.23977696 49.51247394 12.1484375 47.32421875 C8.75908999 45.45290148 6.31261107 45.9241785 2.5 46.3125 C1.23671875 46.43238281 -0.0265625 46.55226562 -1.328125 46.67578125 C-2.29234375 46.78277344 -3.2565625 46.88976563 -4.25 47 C-4.25 45.68 -4.25 44.36 -4.25 43 C10.68831913 41.28033219 10.68831913 41.28033219 16.75 45 C17.41 45.66 18.07 46.32 18.75 47 C19.08 46.67 19.41 46.34 19.75 46 C19.58129322 41.61362368 19.18717291 39.51563984 16.3125 36.125 C12.26640833 32.76970447 9.99793756 32.73760312 4.75 33 C1.42813829 33.91114536 1.42813829 33.91114536 -1.25 35 C-1.25 33.68 -1.25 32.36 -1.25 31 C1.06 30.01 3.37 29.02 5.75 28 C6.38074568 20.74642471 4.33250539 14.62285117 0.1015625 8.6875 C-2.89616463 5.12688088 -5.85924614 1.78003535 -10.25 0 C-12.50328412 0.20643199 -12.50328412 0.20643199 -14.25 1 C-14.58 2.98 -14.91 4.96 -15.25 7 C-12.49099889 8.83933407 -10.86444747 9.44024366 -7.75 10.25 C-4.17633489 11.394735 -3.44091829 11.72808607 -1.1875 14.9375 C-0.25 18 -0.25 18 -0.25 22 C-1.24 22 -2.23 22 -3.25 22 C-3.53875 20.906875 -3.8275 19.81375 -4.125 18.6875 C-5.24615882 15.98256828 -5.85223682 15.176114 -8.5703125 13.97265625 C-10.32576061 13.49924823 -12.09505496 13.07394688 -13.875 12.703125 C-16.51186012 11.92247562 -17.56115949 11.1363566 -19.25 9 C-20.72940089 4.78939746 -19.86061919 2.07391912 -18.25 -2 C-33.46166394 -7.66015403 -55.24664359 -4.23547908 -66.3125 8.0625 Z M23.75 47 C21.33717263 51.92618922 20.22103226 55.39294195 20.75 61 C21.63064927 63.35369807 21.63064927 63.35369807 22.75 65 C25.63949684 64.68762196 27.33633099 64.35661121 29.5625 62.4375 C31.26935095 58.93396385 31.33168248 55.82809955 30.75 52 C29.30760527 49.18733027 28.5466964 48.27315305 25.5625 47.25 C24.964375 47.1675 24.36625 47.085 23.75 47 Z M57.75 75 C57.77320313 76.02996094 57.79640625 77.05992188 57.8203125 78.12109375 C58.33999496 111.32565327 48.9214005 142.25890504 25.48071289 166.56835938 C21.18768014 170.90203884 16.81752909 174.62164727 11.75 178 C11.75 178.33 11.75 178.66 11.75 179 C23.96175348 180.16875119 23.96175348 180.16875119 35.6796875 177.72265625 C37.68128872 175.95015396 39.18313409 174.16219228 40.75 172 C41.93726919 170.77061039 43.12477415 169.54144844 44.3125 168.3125 C50.02851139 161.57389942 54.96503546 153.7264933 56.75 145 C58.07 145.33 59.39 145.66 60.75 146 C57.59702649 156.6850769 52.63442729 165.37052866 45.484375 173.90625 C43.61801017 176.08574483 43.61801017 176.08574483 41.75 179 C57.26 179 72.77 179 88.75 179 C88.75 144.68 88.75 110.36 88.75 75 C83.06633495 73.24465283 83.06633495 73.24465283 77.59375 72.734375 C76.52447266 72.73050781 76.52447266 72.73050781 75.43359375 72.7265625 C74.71300781 72.73429687 73.99242187 72.74203125 73.25 72.75 C72.16912109 72.73839844 72.16912109 72.73839844 71.06640625 72.7265625 C66.27114376 72.74390522 62.30217941 73.49059314 57.75 75 Z " fill="#000000" transform="translate(103.25,12)"/>
<path d="M0 0 C6.89105455 5.63813554 11.47047339 11.24000009 12.75 20.25 C13.14372058 28.96106782 10.82596744 35.76554781 4.95703125 42.22265625 C-0.02596431 46.90726885 -6.20224548 51.25 -13.25 51.25 C-13.29125 52.136875 -13.3325 53.02375 -13.375 53.9375 C-14.29166561 57.4077341 -15.34771827 59.17166653 -18.2421875 61.33203125 C-22.42392164 63.24391359 -26.79284994 62.98404103 -31.25 62.25 C-34.39799723 60.93323073 -36.68485625 59.38028749 -38.25 56.25 C-38.38415472 53.5776379 -38.29318541 50.92749512 -38.25 48.25 C-38.930625 48.04375 -39.61125 47.8375 -40.3125 47.625 C-47.56991738 44.22791101 -52.404877 38.7272654 -55.25 31.25 C-56.98226674 23.93598488 -56.66967131 17.00438185 -53.25 10.25 C-47.55694329 1.89366783 -40.86938626 -2.31559028 -31.3671875 -5.3515625 C-20.03970826 -7.48330214 -10.00682804 -5.38829202 0 0 Z M-46.25 9.25 C-50.03520189 14.06542503 -51.49340073 19.13323378 -51.25 25.25 C-49.87877928 32.89996823 -44.64624319 38.72256321 -38.5625 43.25 C-36.05800457 44.51460743 -36.05800457 44.51460743 -32.25 44.25 C-32.35699219 44.93707031 -32.46398437 45.62414063 -32.57421875 46.33203125 C-32.69410156 47.23308594 -32.81398437 48.13414063 -32.9375 49.0625 C-33.06511719 49.95582031 -33.19273437 50.84914062 -33.32421875 51.76953125 C-33.47332192 54.27226507 -33.47332192 54.27226507 -32.015625 56.046875 C-28.99784084 58.1032412 -25.70885976 57.85425863 -22.25 57.25 C-19.51938424 55.93620182 -19.51938424 55.93620182 -18.25 53.25 C-18.23385386 50.42980671 -18.69115102 48.0442449 -19.25 45.25 C-18.30125 45.518125 -17.3525 45.78625 -16.375 46.0625 C-10.96027186 46.8438937 -6.69134263 44.07767994 -2.25 41.25 C0.66886589 38.83363062 0.66886589 38.83363062 2.75 36.25 C3.306875 35.63125 3.86375 35.0125 4.4375 34.375 C7.5288011 29.37003632 8.26459694 24.30759548 7.40625 18.58203125 C5.32611544 11.19012452 0.40744646 6.26403511 -6.04296875 2.40234375 C-18.98417133 -4.35456733 -36.48345287 -1.82052754 -46.25 9.25 Z " fill="#000000" transform="translate(184.25,7.75)"/>
<path d="M0 0 C3.3125 2 3.3125 2 6 4 C9.15722061 4.29850538 9.15722061 4.29850538 11.6875 2 C16.04190932 -0.62907733 17.97762488 -0.55804168 23 0 C25.87472735 1.24988145 27.44101438 2.25468584 29.3125 4.75 C30.31199111 8.0210618 30.3581657 10.59742588 30 14 C28.20437595 16.75329021 26.94745078 18.52627461 24 20 C18.64956244 20.6846995 14.35130479 20.74051513 9.875 17.5 C8.92625 16.675 7.9775 15.85 7 15 C6.21625 15.825 5.4325 16.65 4.625 17.5 C1.0344019 20.49358654 -2.08915734 20.66057275 -6.65625 20.43359375 C-9.96349149 19.82175407 -11.75794024 18.45903328 -14 16 C-15.60847182 12.78305636 -15.61309149 9.47862778 -15 6 C-10.6462548 0.61510462 -6.88011261 -0.98653384 0 0 Z M-8.9375 6.1875 C-10.24211502 8.02020138 -10.24211502 8.02020138 -9.8125 10.5625 C-9.15372967 13.14441272 -9.15372967 13.14441272 -7 15 C-4.08461971 15.50042146 -4.08461971 15.50042146 -1 15 C1.37719693 13.12498069 1.37719693 13.12498069 3 11 C1.84826645 8.53199953 0.95216435 6.95216435 -1 5 C-4.1642235 4.66338048 -6.18513382 4.50056589 -8.9375 6.1875 Z M12 9 C13.15173355 11.46800047 14.04783565 13.04783565 16 15 C19.1642235 15.33661952 21.18513382 15.49943411 23.9375 13.8125 C25.24211502 11.97979862 25.24211502 11.97979862 24.8125 9.4375 C24.15372967 6.85558728 24.15372967 6.85558728 22 5 C17.05712234 4.35527683 15.12937624 5.14846001 12 9 Z " fill="#000000" transform="translate(155,20)"/>
<path d="M0 0 C1.32 0 2.64 0 4 0 C3.91621094 0.78246094 3.83242188 1.56492187 3.74609375 2.37109375 C3.64425781 3.38300781 3.54242188 4.39492188 3.4375 5.4375 C3.33308594 6.44683594 3.22867188 7.45617187 3.12109375 8.49609375 C3.08113281 9.32238281 3.04117188 10.14867187 3 11 C4.71300326 12.71300326 6.97022321 12.33428981 9.27050781 12.54345703 C16.78951685 13.26011788 23.90479999 14.12630769 30 19 C33.95312292 23.83274451 34.59899054 28.88807804 34 35 C33.72835543 37.60390722 33.45134721 40.20360279 33.12109375 42.80078125 C32.854939 45.17799538 32.854939 45.17799538 34 48 C36.72191663 49.36095831 39.29050611 49.40775834 42.3125 49.75 C46.41053764 50.38011862 48.75967019 50.85036068 52.3125 53.0625 C54.63236187 57.10077806 54.44600429 60.45075619 54 65 C52.35 64.67 50.7 64.34 49 64 C48.505 60.535 48.505 60.535 48 57 C45.01654653 56.00551551 42.74552945 55.83711443 39.625 55.6875 C36.2180529 55.37245866 34.06305064 55.0295952 30.9375 53.5625 C25.88555557 46.88089608 26.91892771 38.86336593 28.00390625 30.98046875 C27.99907851 27.29690531 27.34007379 25.83019191 25 23 C19.90591133 19.67809065 14.72126543 19.30916561 8.83398438 18.828125 C4.50429902 18.40050176 1.4912717 17.63990298 -2 15 C-3.53597454 11.92805092 -3.2265038 9.39755707 -3 6 C-1.5 2.5625 -1.5 2.5625 0 0 Z " fill="#000000" transform="translate(54,23)"/>
<path d="M0 0 C2.53875542 0.34307506 4.48348673 0.63287047 6.59375 2.1328125 C8.61216773 4.81282271 8.75582841 7.26039684 9.1875 10.5625 C9.34605469 11.71878906 9.50460938 12.87507813 9.66796875 14.06640625 C10 17 10 17 10 19 C10.65226562 19.13535156 11.30453125 19.27070312 11.9765625 19.41015625 C18.55454104 21.0303958 22.40364204 23.16089483 26 29 C27.07790222 32.23370666 26.86026005 34.64843435 26.63012695 38.00488281 C25.99745004 45.12771402 25.99745004 45.12771402 28.89453125 51.27734375 C31.20898631 52.68695531 33.55309932 53.84162681 36 55 C38.53949844 58.00122543 38.94807969 59.52406381 39.375 63.4375 C38.97250653 67.261188 37.92964999 69.70351459 36 73 C34.68 72.67 33.36 72.34 32 72 C32.11859375 71.25234375 32.2371875 70.5046875 32.359375 69.734375 C33.34518735 63.85719497 33.34518735 63.85719497 31.4375 58.5 C28.93072259 56.90813876 28.93072259 56.90813876 25.875 55.4375 C23 54 23 54 21 51 C20.82055664 49.08642578 20.82055664 49.08642578 20.91015625 46.9453125 C20.93013672 46.16542969 20.95011719 45.38554687 20.97070312 44.58203125 C21.03161521 42.9516609 21.09668032 41.32144011 21.16601562 39.69140625 C21.27852331 34.98160179 21.2598184 31.71746029 18 28 C15.64313361 26.66704872 15.64313361 26.66704872 13 25.875 C7.01386282 23.86180505 7.01386282 23.86180505 5 21 C4.26953125 17.93359375 4.26953125 17.93359375 3.8125 14.4375 C3.65394531 13.28121094 3.49539062 12.12492187 3.33203125 10.93359375 C3 8 3 8 3 6 C1.68 5.67 0.36 5.34 -1 5 C-0.67 3.35 -0.34 1.7 0 0 Z " fill="#000000" transform="translate(55,89)"/>
<path d="M0 0 C5.92228163 0.3553369 8.85020267 1.75588909 13 6 C17.20088881 13.01807253 17.21982943 20.94541945 15.3203125 28.81640625 C14.7856543 30.44329478 14.24181226 32.06720263 13.6875 33.6875 C12.55905908 37.48316492 12.1631767 41.10762006 13 45 C15.52968474 48.28175318 17.07731331 49.69243777 21 51 C21.33 51.99 21.66 52.98 22 54 C21.67 54.66 21.34 55.32 21 56 C15.74587663 55.58791189 12.71663943 54.82282913 9 51 C5.73642929 44.23322577 6.13937727 37.01474148 8.5 30 C10.59790983 23.73624065 11.38517942 17.16612439 8.6875 11 C5.9786819 7.78954892 3.87693458 5.73793619 0 4 C0 2.68 0 1.36 0 0 Z " fill="#000000" transform="translate(87,93)"/>
<path d="M0 0 C3.63028129 -0.33770059 5.52706859 -0.28595853 8.6875 1.625 C12.28708674 5.32187287 13.87305201 8.55823359 14.328125 13.7265625 C14.30234375 15.01304688 14.2765625 16.29953125 14.25 17.625 C14.23453125 18.91664062 14.2190625 20.20828125 14.203125 21.5390625 C14.04352725 24.25836266 13.74217842 26.41675884 13 29 C12.60693142 33.32375443 12.52272379 35.29900057 15 38.9375 C15.66 39.618125 16.32 40.29875 17 41 C16.34 42.32 15.68 43.64 15 45 C11.615103 44.08516297 10.23889561 43.33774897 8.1875 40.4375 C5.97987565 34.04700847 6.87308879 28.42094096 8.125 21.875 C9.02516651 16.78484981 9.2467813 13.68893489 7 9 C4.74583955 6.85854757 2.76670279 5.38335139 0 4 C0 2.68 0 1.36 0 0 Z " fill="#000000" transform="translate(101,91)"/>
<path d="M0 0 C1.65 0.33 3.3 0.66 5 1 C4.690625 1.721875 4.38125 2.44375 4.0625 3.1875 C3.07439461 5.80307309 2.4712246 8.25118982 2 11 C6.03620799 13.69080533 10.05140471 14.12245193 14.7734375 15.0234375 C18.92791197 16.28084503 21.70785398 18.27713864 24.3125 21.75 C25.36579094 25.19713398 25.11983573 28.40492797 25 32 C23.68 32 22.36 32 21 32 C19.515 27.05 19.515 27.05 18 22 C16.83082031 21.76925781 15.66164063 21.53851563 14.45703125 21.30078125 C12.90864561 20.97233581 11.36047961 20.64285378 9.8125 20.3125 C8.65911133 20.08916992 8.65911133 20.08916992 7.48242188 19.86132812 C2.35044926 18.73802081 -0.75301568 17.39872024 -4 13 C-4.67666308 8.82019575 -3.61681196 5.01157162 -1.4375 1.4375 C-0.7259375 0.7259375 -0.7259375 0.7259375 0 0 Z " fill="#000000" transform="translate(70,13)"/>
<path d="M0 0 C1.32 0.66 2.64 1.32 4 2 C4 3.98 4 5.96 4 8 C4.81984375 8.24234375 5.6396875 8.4846875 6.484375 8.734375 C7.56203125 9.06953125 8.6396875 9.4046875 9.75 9.75 C10.81734375 10.07484375 11.8846875 10.3996875 12.984375 10.734375 C17.0159413 12.42637951 19.17070492 14.53886106 21.3125 18.3125 C22.20074013 21.78471143 21.68346062 24.51435086 21 28 C19.68 28 18.36 28 17 28 C16.91363281 27.38511719 16.82726562 26.77023438 16.73828125 26.13671875 C15.95377819 21.06300423 15.95377819 21.06300423 12.9375 17.125 C10.43035696 16.16481756 7.93659319 15.35805171 5.375 14.5625 C2.67029091 13.68493216 1.12611167 13.10700384 -1.0625 11.25 C-2.39803711 8.04471094 -2.31752326 5.42925123 -2 2 C-1.34 1.34 -0.68 0.68 0 0 Z " fill="#000000" transform="translate(70,89)"/>
<path d="M0 0 C2.4375 1.6875 2.4375 1.6875 4 4 C4.47532236 7.25935332 4.29737834 9.26646676 3.0625 12.3125 C-0.25253126 15.02479831 -3.79666131 15.29445455 -8 15 C-11.0625 13.5 -11.0625 13.5 -13 11 C-13.5625 7.5 -13.5625 7.5 -13 4 C-8.98745153 -1.0825614 -6.2245005 -1.39514666 0 0 Z M-6 4 C-6.66 4.66 -7.32 5.32 -8 6 C-8 6.99 -8 7.98 -8 9 C-4.41672247 10.00217064 -4.41672247 10.00217064 -1 9 C-1.33 7.68 -1.66 6.36 -2 5 C-3.89179203 4.3185177 -3.89179203 4.3185177 -6 4 Z " fill="#000000" transform="translate(151,71)"/>
<path d="M0 0 C0 1.32 0 2.64 0 4 C-0.80824219 3.97679688 -1.61648437 3.95359375 -2.44921875 3.9296875 C-3.51785156 3.91164063 -4.58648437 3.89359375 -5.6875 3.875 C-6.74324219 3.85179688 -7.79898438 3.82859375 -8.88671875 3.8046875 C-12.04019879 4.00252188 -14.12161296 4.77767126 -17 6 C-19.8125 5.625 -19.8125 5.625 -22 5 C-21.9375 3.1875 -21.9375 3.1875 -21 1 C-14.56588298 -2.83309099 -6.66532453 -3.84596887 0 0 Z " fill="#000000" transform="translate(51,67)"/>
<path d="M0 0 C-0.25 2.375 -0.25 2.375 -1 5 C-4.2955753 7.66181082 -7.93339881 7.15640774 -12 7 C-12.33 5.35 -12.66 3.7 -13 2 C-11.58461283 1.66127487 -10.16762037 1.32925376 -8.75 1 C-7.56664062 0.7215625 -7.56664062 0.7215625 -6.359375 0.4375 C-4 0 -4 0 0 0 Z " fill="#000000" transform="translate(45,73)"/>
</svg>
